<svg xmlns="http://www.w3.org/2000/svg" viewBox="0 0 1024 1024" role="img" aria-labelledby="title desc">
<title id="title">RAFIQ | رفيق</title><desc id="desc">الشعار المعتمد لمنصة رفيق بدون زخارف سنابل القمح الخارجية</desc>
<defs>
 <linearGradient id="g" x1="0" y1="0" x2="1" y2="1"><stop offset="0" stop-color="#0a9b68"/><stop offset="1" stop-color="#07553d"/></linearGradient>
 <linearGradient id="r" x1="0" y1="0" x2="1" y2="1"><stop offset="0" stop-color="#ef3340"/><stop offset="1" stop-color="#b31324"/></linearGradient>
 <linearGradient id="y" x1="0" y1="0" x2="1" y2="1"><stop offset="0" stop-color="#f0c85a"/><stop offset="1" stop-color="#b17a16"/></linearGradient>
 <filter id="shadow" x="-20%" y="-20%" width="140%" height="140%"><feDropShadow dx="0" dy="10" stdDeviation="10" flood-opacity=".14"/></filter>
</defs>
<rect width="1024" height="1024" rx="36" fill="#fffdf8"/>
<circle cx="512" cy="390" r="335" fill="none" stroke="url(#y)" stroke-width="22"/>
<circle cx="512" cy="390" r="308" fill="none" stroke="#e4bd52" stroke-width="5" opacity=".8"/>
<!-- house -->
<path d="M246 385 L512 118 L778 385" fill="none" stroke="#157c55" stroke-width="44" stroke-linejoin="round" filter="url(#shadow)"/>
<path d="M270 365 L512 128 L754 365" fill="none" stroke="url(#y)" stroke-width="10"/>
<path d="M654 212 L702 189 L702 301 L654 318 Z" fill="url(#g)" stroke="url(#y)" stroke-width="9"/>
<g fill="url(#y)" stroke="#9c6b10" stroke-width="4">
 <rect x="472" y="191" width="35" height="35" rx="6"/><rect x="517" y="191" width="35" height="35" rx="6"/>
 <rect x="472" y="236" width="35" height="35" rx="6"/><rect x="517" y="236" width="35" height="35" rx="6"/>
</g>
<!-- protective heart -->
<path d="M512 652 C462 600 331 545 337 421 C341 345 409 303 468 329 C496 341 513 359 528 382 C542 357 559 340 588 328 C650 302 716 345 719 421 C723 543 580 603 512 652 Z" fill="none" stroke="url(#r)" stroke-width="34" stroke-linecap="round" stroke-linejoin="round"/>
<!-- family -->
<circle cx="471" cy="380" r="46" fill="url(#g)" stroke="#06472f" stroke-width="6"/>
<path d="M398 500 C398 435 430 409 472 409 C514 409 548 435 548 500 Z" fill="url(#g)" stroke="#06472f" stroke-width="6"/>
<circle cx="583" cy="412" r="38" fill="url(#y)" stroke="#9c6b10" stroke-width="6"/>
<path d="M531 500 C531 453 556 434 586 434 C617 434 640 453 640 500 Z" fill="url(#y)" stroke="#9c6b10" stroke-width="6"/>
<!-- small house in family -->
<path d="M527 510 L579 465 L631 510 L621 510 L621 555 L537 555 L537 510 Z" fill="#fffdf8" stroke="url(#y)" stroke-width="10" stroke-linejoin="round"/>
<path d="M569 555 L569 526 L589 526 L589 555" fill="none" stroke="url(#y)" stroke-width="8"/>
<!-- supporting hands -->
<path d="M290 570 C338 613 395 641 459 650 C519 659 569 649 626 615 C660 594 691 570 716 563 C734 558 751 568 755 583 C759 600 746 614 731 625 C684 661 638 688 581 705 C511 726 427 721 351 695 C307 680 270 659 242 638 C226 625 222 604 235 588 C248 571 270 563 290 570 Z" fill="url(#g)" stroke="#06472f" stroke-width="9" filter="url(#shadow)"/>
<path d="M670 620 C716 581 741 555 758 542 C772 531 789 536 797 548 C805 561 800 576 788 588 C767 610 746 630 720 650" fill="url(#g)" stroke="#06472f" stroke-width="9"/>
<!-- wordmark -->
<text x="512" y="820" text-anchor="middle" font-family="Georgia, 'Times New Roman', serif" font-size="154" font-weight="800" letter-spacing="4" fill="url(#g)" stroke="#0a5f42" stroke-width="2">RAFIQ</text>
<!-- heart -->
<path d="M512 848 C500 828 467 838 467 863 C467 889 512 912 512 912 C512 912 557 889 557 863 C557 838 524 828 512 848 Z" fill="url(#r)" stroke="#8d1825" stroke-width="5"/>
<path d="M335 842 Q420 826 466 832" fill="none" stroke="url(#y)" stroke-width="12" stroke-linecap="round"/>
<path d="M558 832 Q604 826 689 842" fill="none" stroke="url(#y)" stroke-width="12" stroke-linecap="round"/>
<!-- Arabic tagline -->
<text x="512" y="955" text-anchor="middle" direction="rtl" unicode-bidi="plaintext" font-family="Tahoma, Arial, sans-serif" font-size="42" font-weight="800" fill="#165f46">نصل بالحب والأمان لرعاية العائلة</text>
</svg>